<svg xmlns="http://www.w3.org/2000/svg" width="600" height="300" viewBox="0 0 300 150">
  <defs>
    <style>
      .cls-1 {
        fill-rule: evenodd;
      }
    </style>
  </defs>
  <g id="Artboard_1" data-name="Artboard 1">
    <path id="LECTOR" class="cls-1" d="M67.134,87.28V85.394h-13.7V58.55h-2V87.28h15.7Zm33.533-1.847H86.97V73.112H99.9V71.264H86.97V60.4h13.7V58.55h-15.7V87.28h15.7V85.433Zm38.248-23.916,0.806-1.808a17.383,17.383,0,0,0-7.526-1.572,14.1,14.1,0,0,0-7.242,1.818,12.021,12.021,0,0,0-4.775,5.158,17.138,17.138,0,0,0-1.661,7.723q0,7.015,3.479,10.926a12.1,12.1,0,0,0,9.531,3.911,21.67,21.67,0,0,0,7.113-1V84.9a22.66,22.66,0,0,1-6.642.924q-5.443,0-8.371-3.4T120.7,72.876q0-6.013,3.1-9.472a10.856,10.856,0,0,1,8.51-3.459,14.578,14.578,0,0,1,6.6,1.572h0Zm26.5-1.081h9.334V58.55H154.054v1.886h9.335V87.28h2.024V60.436Zm47.229,1.621q-3.4-3.96-9.413-3.96a11.876,11.876,0,0,0-9.423,3.94q-3.448,3.94-3.449,10.8,0,6.878,3.42,10.857a13.146,13.146,0,0,0,18.846,0q3.418-3.98,3.419-10.818Q216.042,66.018,212.642,62.058Zm-17.323,1.326a9.716,9.716,0,0,1,7.91-3.341q5.148,0,7.89,3.311t2.742,9.521q0,6.23-2.742,9.57t-7.929,3.341q-5.149,0-7.9-3.37t-2.751-9.541Q192.539,66.725,195.319,63.384Zm49.342,11.378L252.07,87.28h2.4l-7.8-13.088a8.467,8.467,0,0,0,4.628-2.849,7.77,7.77,0,0,0,1.523-4.874,7.046,7.046,0,0,0-2.555-5.945q-2.555-1.975-7.9-1.975h-6.838V87.28h2V74.762h7.133Zm-7.133-14.4h4.756q4.44,0,6.406,1.494a5.614,5.614,0,0,1,1.965,4.775,5.791,5.791,0,0,1-2,4.785,8.752,8.752,0,0,1-5.64,1.621h-5.483V60.358Z"/>
  </g>
</svg>
